<svg width="1280" height="720" viewBox="0 0 1280 720" fill="none" xmlns="http://www.w3.org/2000/svg">
  <defs>
    <linearGradient id="bg2" x1="0" y1="0" x2="1280" y2="720" gradientUnits="userSpaceOnUse">
      <stop stop-color="#F6F2EC"/>
      <stop offset="1" stop-color="#E8F0F7"/>
    </linearGradient>
  </defs>
  <rect width="1280" height="720" fill="url(#bg2)"/>
  <rect x="98" y="68" width="1084" height="584" rx="26" fill="#FFFDF9" stroke="#DCE3EA" stroke-width="2"/>
  <rect x="148" y="116" width="312" height="488" rx="20" fill="#EEF3F8"/>
  <rect x="184" y="164" width="240" height="240" rx="18" fill="#D6E2EE"/>
  <rect x="184" y="432" width="184" height="18" rx="9" fill="#BFCFE0"/>
  <rect x="184" y="460" width="228" height="14" rx="7" fill="#CDD9E5"/>
  <rect x="496" y="116" width="636" height="116" rx="20" fill="#EBF2F8"/>
  <rect x="528" y="154" width="318" height="22" rx="11" fill="#9DB8D1"/>
  <rect x="528" y="188" width="228" height="14" rx="7" fill="#C5D4E3"/>
  <rect x="496" y="258" width="636" height="220" rx="20" fill="#F3F7FB" stroke="#E2E9F0"/>
  <rect x="528" y="292" width="570" height="14" rx="7" fill="#C5D5E4"/>
  <rect x="528" y="318" width="530" height="14" rx="7" fill="#C5D5E4"/>
  <rect x="528" y="344" width="500" height="14" rx="7" fill="#C5D5E4"/>
  <rect x="528" y="370" width="468" height="14" rx="7" fill="#C5D5E4"/>
  <rect x="496" y="504" width="206" height="54" rx="27" fill="#DDE8F3"/>
  <rect x="718" y="504" width="196" height="54" rx="27" fill="#E8EFF6"/>
  <rect x="928" y="504" width="204" height="54" rx="27" fill="#E8EFF6"/>
  <text x="640" y="672" text-anchor="middle" font-family="Inter, Arial, sans-serif" font-size="28" fill="#5D7F9D">Portfolio Preview</text>
</svg>
