<svg width="1280" height="720" viewBox="0 0 1280 720" fill="none" xmlns="http://www.w3.org/2000/svg">
  <defs>
    <linearGradient id="bg" x1="0" y1="0" x2="1280" y2="720" gradientUnits="userSpaceOnUse">
      <stop stop-color="#E5EDF4"/>
      <stop offset="1" stop-color="#F6F2EC"/>
    </linearGradient>
  </defs>
  <rect width="1280" height="720" fill="url(#bg)"/>
  <rect x="118" y="88" width="1044" height="544" rx="24" fill="#FDFBF7" stroke="#D8DEE5" stroke-width="2"/>
  <rect x="154" y="132" width="280" height="456" rx="18" fill="#EDF2F7"/>
  <rect x="182" y="170" width="224" height="40" rx="10" fill="#D3DFEA"/>
  <rect x="182" y="232" width="174" height="14" rx="7" fill="#C8D4E1"/>
  <rect x="182" y="258" width="210" height="14" rx="7" fill="#C8D4E1"/>
  <rect x="182" y="284" width="150" height="14" rx="7" fill="#C8D4E1"/>
  <rect x="470" y="132" width="656" height="74" rx="16" fill="#EAF0F6"/>
  <rect x="500" y="160" width="264" height="18" rx="9" fill="#9AB6CF"/>
  <rect x="788" y="160" width="128" height="18" rx="9" fill="#C0D0DF"/>
  <rect x="470" y="232" width="656" height="152" rx="18" fill="#F2F6FA" stroke="#E2E8EF"/>
  <rect x="500" y="264" width="304" height="16" rx="8" fill="#B8CADB"/>
  <rect x="500" y="292" width="434" height="14" rx="7" fill="#C6D5E3"/>
  <rect x="500" y="316" width="388" height="14" rx="7" fill="#C6D5E3"/>
  <rect x="470" y="408" width="206" height="52" rx="26" fill="#DDE8F3"/>
  <rect x="692" y="408" width="212" height="52" rx="26" fill="#E7EEF5"/>
  <rect x="920" y="408" width="206" height="52" rx="26" fill="#E7EEF5"/>
  <rect x="470" y="486" width="656" height="102" rx="18" fill="#EFF4F9"/>
  <text x="640" y="660" text-anchor="middle" font-family="Inter, Arial, sans-serif" font-size="28" fill="#5D7F9D">TaskList Preview</text>
</svg>
